o Disc
v 0 0 0
v 0.99452189536827329 0 0.10452846326765346
v 1 0 0
v 0 0 0
v 0.97814760073380569 0 0.20791169081775932
v 0.99452189536827329 0 0.10452846326765346
v 0 0 0
v 0.95105651629515353 0 0.3090169943749474
v 0.97814760073380569 0 0.20791169081775932
v 0 0 0
v 0.91354545764260087 0 0.40673664307580015
v 0.95105651629515353 0 0.3090169943749474
v 0 0 0
v 0.86602540378443871 0 0.49999999999999994
v 0.91354545764260087 0 0.40673664307580015
v 0 0 0
v 0.80901699437494745 0 0.58778525229247314
v 0.86602540378443871 0 0.49999999999999994
v 0 0 0
v 0.74314482547739424 0 0.66913060635885824
v 0.80901699437494745 0 0.58778525229247314
v 0 0 0
v 0.66913060635885824 0 0.74314482547739413
v 0.74314482547739424 0 0.66913060635885824
v 0 0 0
v 0.58778525229247314 0 0.80901699437494745
v 0.66913060635885824 0 0.74314482547739413
v 0 0 0
v 0.50000000000000011 0 0.8660254037844386
v 0.58778525229247314 0 0.80901699437494745
v 0 0 0
v 0.40673664307580021 0 0.91354545764260087
v 0.50000000000000011 0 0.8660254037844386
v 0 0 0
v 0.30901699437494745 0 0.95105651629515353
v 0.40673664307580021 0 0.91354545764260087
v 0 0 0
v 0.20791169081775945 0 0.97814760073380558
v 0.30901699437494745 0 0.95105651629515353
v 0 0 0
v 0.10452846326765346 0 0.99452189536827329
v 0.20791169081775945 0 0.97814760073380558
v 0 0 0
v 6.1230317691118863E-17 0 1
v 0.10452846326765346 0 0.99452189536827329
v 0 0 0
v -0.10452846326765333 0 0.9945218953682734
v 6.1230317691118863E-17 0 1
v 0 0 0
v -0.20791169081775912 0 0.97814760073380569
v -0.10452846326765333 0 0.9945218953682734
v 0 0 0
v -0.30901699437494734 0 0.95105651629515364
v -0.20791169081775912 0 0.97814760073380569
v 0 0 0
v -0.40673664307580004 0 0.913545457642601
v -0.30901699437494734 0 0.95105651629515364
v 0 0 0
v -0.49999999999999978 0 0.86602540378443871
v -0.40673664307580004 0 0.913545457642601
v 0 0 0
v -0.587785252292473 0 0.80901699437494745
v -0.49999999999999978 0 0.86602540378443871
v 0 0 0
v -0.66913060635885824 0 0.74314482547739424
v -0.587785252292473 0 0.80901699437494745
v 0 0 0
v -0.743144825477394 0 0.66913060635885835
v -0.66913060635885824 0 0.74314482547739424
v 0 0 0
v -0.80901699437494734 0 0.58778525229247325
v -0.743144825477394 0 0.66913060635885835
v 0 0 0
v -0.86602540378443871 0 0.49999999999999994
v -0.80901699437494734 0 0.58778525229247325
v 0 0 0
v -0.91354545764260076 0 0.40673664307580043
v -0.86602540378443871 0 0.49999999999999994
v 0 0 0
v -0.95105651629515353 0 0.30901699437494751
v -0.91354545764260076 0 0.40673664307580043
v 0 0 0
v -0.97814760073380569 0 0.20791169081775932
v -0.95105651629515353 0 0.30901699437494751
v 0 0 0
v -0.99452189536827329 0 0.10452846326765374
v -0.97814760073380569 0 0.20791169081775932
v 0 0 0
v -1 0 1.2246063538223773E-16
v -0.99452189536827329 0 0.10452846326765374
v 0 0 0
v -0.9945218953682734 0 -0.10452846326765306
v -1 0 1.2246063538223773E-16
v 0 0 0
v -0.97814760073380569 0 -0.20791169081775907
v -0.9945218953682734 0 -0.10452846326765306
v 0 0 0
v -0.95105651629515353 0 -0.30901699437494773
v -0.97814760073380569 0 -0.20791169081775907
v 0 0 0
v -0.91354545764260109 0 -0.40673664307579982
v -0.95105651629515353 0 -0.30901699437494773
v 0 0 0
v -0.8660254037844386 0 -0.50000000000000011
v -0.91354545764260109 0 -0.40673664307579982
v 0 0 0
v -0.80901699437494756 0 -0.587785252292473
v -0.8660254037844386 0 -0.50000000000000011
v 0 0 0
v -0.74314482547739424 0 -0.66913060635885824
v -0.80901699437494756 0 -0.587785252292473
v 0 0 0
v -0.66913060635885846 0 -0.743144825477394
v -0.74314482547739424 0 -0.66913060635885824
v 0 0 0
v -0.58778525229247325 0 -0.80901699437494734
v -0.66913060635885846 0 -0.743144825477394
v 0 0 0
v -0.50000000000000044 0 -0.86602540378443837
v -0.58778525229247325 0 -0.80901699437494734
v 0 0 0
v -0.4067366430758001 0 -0.913545457642601
v -0.50000000000000044 0 -0.86602540378443837
v 0 0 0
v -0.30901699437494756 0 -0.95105651629515353
v -0.4067366430758001 0 -0.913545457642601
v 0 0 0
v -0.20791169081775979 0 -0.97814760073380558
v -0.30901699437494756 0 -0.95105651629515353
v 0 0 0
v -0.10452846326765336 0 -0.9945218953682734
v -0.20791169081775979 0 -0.97814760073380558
v 0 0 0
v -1.8369095307335659E-16 0 -1
v -0.10452846326765336 0 -0.9945218953682734
v 0 0 0
v 0.10452846326765299 0 -0.9945218953682734
v -1.8369095307335659E-16 0 -1
v 0 0 0
v 0.20791169081775857 0 -0.9781476007338058
v 0.10452846326765299 0 -0.9945218953682734
v 0 0 0
v 0.30901699437494723 0 -0.95105651629515364
v 0.20791169081775857 0 -0.9781476007338058
v 0 0 0
v 0.40673664307580054 0 -0.91354545764260076
v 0.30901699437494723 0 -0.95105651629515364
v 0 0 0
v 0.50000000000000011 0 -0.8660254037844386
v 0.40673664307580054 0 -0.91354545764260076
v 0 0 0
v 0.58778525229247292 0 -0.80901699437494756
v 0.50000000000000011 0 -0.8660254037844386
v 0 0 0
v 0.66913060635885779 0 -0.74314482547739458
v 0.58778525229247292 0 -0.80901699437494756
v 0 0 0
v 0.74314482547739424 0 -0.66913060635885813
v 0.66913060635885779 0 -0.74314482547739458
v 0 0 0
v 0.80901699437494734 0 -0.58778525229247336
v 0.74314482547739424 0 -0.66913060635885813
v 0 0 0
v 0.86602540378443837 0 -0.50000000000000044
v 0.80901699437494734 0 -0.58778525229247336
v 0 0 0
v 0.913545457642601 0 -0.40673664307580015
v 0.86602540378443837 0 -0.50000000000000044
v 0 0 0
v 0.95105651629515353 0 -0.30901699437494762
v 0.913545457642601 0 -0.40673664307580015
v 0 0 0
v 0.97814760073380558 0 -0.20791169081775987
v 0.95105651629515353 0 -0.30901699437494762
v 0 0 0
v 0.99452189536827329 0 -0.10452846326765342
v 0.97814760073380558 0 -0.20791169081775987
v 0 0 0
v 1 0 0
v 0.99452189536827329 0 -0.10452846326765342
vn 0 1 0
vn 0 1 0
vn 0 1 0
vn 0 1 0
vn 0 1 0
vn 0 1 0
vn 0 1 0
vn 0 1 0
vn 0 1 0
vn 0 1 0
vn 0 1 0
vn 0 1 0
vn 0 1 0
vn 0 1 0
vn 0 1 0
vn 0 1 0
vn 0 1 0
vn 0 1 0
vn 0 1 0
vn 0 1 0
vn 0 1 0
vn 0 1 0
vn 0 1 0
vn 0 1 0
vn 0 1 0
vn 0 1 0
vn 0 1 0
vn 0 1 0
vn 0 1 0
vn 0 1 0
vn 0 1 0
vn 0 1 0
vn 0 1 0
vn 0 1 0
vn 0 1 0
vn 0 1 0
vn 0 1 0
vn 0 1 0
vn 0 1 0
vn 0 1 0
vn 0 1 0
vn 0 1 0
vn 0 1 0
vn 0 1 0
vn 0 1 0
vn 0 1 0
vn 0 1 0
vn 0 1 0
vn 0 1 0
vn 0 1 0
vn 0 1 0
vn 0 1 0
vn 0 1 0
vn 0 1 0
vn 0 1 0
vn 0 1 0
vn 0 1 0
vn 0 1 0
vn 0 1 0
vn 0 1 0
vn 0 1 0
vn 0 1 0
vn 0 1 0
vn 0 1 0
vn 0 1 0
vn 0 1 0
vn 0 1 0
vn 0 1 0
vn 0 1 0
vn 0 1 0
vn 0 1 0
vn 0 1 0
vn 0 1 0
vn 0 1 0
vn 0 1 0
vn 0 1 0
vn 0 1 0
vn 0 1 0
vn 0 1 0
vn 0 1 0
vn 0 1 0
vn 0 1 0
vn 0 1 0
vn 0 1 0
vn 0 1 0
vn 0 1 0
vn 0 1 0
vn 0 1 0
vn 0 1 0
vn 0 1 0
vn 0 1 0
vn 0 1 0
vn 0 1 0
vn 0 1 0
vn 0 1 0
vn 0 1 0
vn 0 1 0
vn 0 1 0
vn 0 1 0
vn 0 1 0
vn 0 1 0
vn 0 1 0
vn 0 1 0
vn 0 1 0
vn 0 1 0
vn 0 1 0
vn 0 1 0
vn 0 1 0
vn 0 1 0
vn 0 1 0
vn 0 1 0
vn 0 1 0
vn 0 1 0
vn 0 1 0
vn 0 1 0
vn 0 1 0
vn 0 1 0
vn 0 1 0
vn 0 1 0
vn 0 1 0
vn 0 1 0
vn 0 1 0
vn 0 1 0
vn 0 1 0
vn 0 1 0
vn 0 1 0
vn 0 1 0
vn 0 1 0
vn 0 1 0
vn 0 1 0
vn 0 1 0
vn 0 1 0
vn 0 1 0
vn 0 1 0
vn 0 1 0
vn 0 1 0
vn 0 1 0
vn 0 1 0
vn 0 1 0
vn 0 1 0
vn 0 1 0
vn 0 1 0
vn 0 1 0
vn 0 1 0
vn 0 1 0
vn 0 1 0
vn 0 1 0
vn 0 1 0
vn 0 1 0
vn 0 1 0
vn 0 1 0
vn 0 1 0
vn 0 1 0
vn 0 1 0
vn 0 1 0
vn 0 1 0
vn 0 1 0
vn 0 1 0
vn 0 1 0
vn 0 1 0
vn 0 1 0
vn 0 1 0
vn 0 1 0
vn 0 1 0
vn 0 1 0
vn 0 1 0
vn 0 1 0
vn 0 1 0
vn 0 1 0
vn 0 1 0
vn 0 1 0
vn 0 1 0
vn 0 1 0
vn 0 1 0
vn 0 1 0
vn 0 1 0
vn 0 1 0
vn 0 1 0
vn 0 1 0
vn 0 1 0
vt 0.5 0.5
vt 0.0027390523158633551 0.55226423163382676
vt 0 0.5
vt 0.5 0.5
vt 0.010926199633097156 0.6039558454088797
vt 0.0027390523158633551 0.55226423163382676
vt 0.5 0.5
vt 0.024471741852423234 0.65450849718747373
vt 0.010926199633097156 0.6039558454088797
vt 0.5 0.5
vt 0.043227271178699567 0.70336832153790008
vt 0.024471741852423234 0.65450849718747373
vt 0.5 0.5
vt 0.066987298107780646 0.75
vt 0.043227271178699567 0.70336832153790008
vt 0.5 0.5
vt 0.095491502812526274 0.79389262614623657
vt 0.066987298107780646 0.75
vt 0.5 0.5
vt 0.12842758726130288 0.83456530317942912
vt 0.095491502812526274 0.79389262614623657
vt 0.5 0.5
vt 0.16543469682057088 0.871572412738697
vt 0.12842758726130288 0.83456530317942912
vt 0.5 0.5
vt 0.20610737385376343 0.90450849718747373
vt 0.16543469682057088 0.871572412738697
vt 0.5 0.5
vt 0.24999999999999994 0.9330127018922193
vt 0.20610737385376343 0.90450849718747373
vt 0.5 0.5
vt 0.29663167846209992 0.95677272882130038
vt 0.24999999999999994 0.9330127018922193
vt 0.5 0.5
vt 0.34549150281252627 0.97552825814757682
vt 0.29663167846209992 0.95677272882130038
vt 0.5 0.5
vt 0.3960441545911203 0.98907380036690284
vt 0.34549150281252627 0.97552825814757682
vt 0.5 0.5
vt 0.44773576836617329 0.99726094768413664
vt 0.3960441545911203 0.98907380036690284
vt 0.5 0.5
vt 0.49999999999999994 1
vt 0.44773576836617329 0.99726094768413664
vt 0.5 0.5
vt 0.55226423163382665 0.99726094768413676
vt 0.49999999999999994 1
vt 0.5 0.5
vt 0.60395584540887959 0.98907380036690284
vt 0.55226423163382665 0.99726094768413676
vt 0.5 0.5
vt 0.65450849718747373 0.97552825814757682
vt 0.60395584540887959 0.98907380036690284
vt 0.5 0.5
vt 0.70336832153790008 0.95677272882130049
vt 0.65450849718747373 0.97552825814757682
vt 0.5 0.5
vt 0.74999999999999989 0.93301270189221941
vt 0.70336832153790008 0.95677272882130049
vt 0.5 0.5
vt 0.79389262614623646 0.90450849718747373
vt 0.74999999999999989 0.93301270189221941
vt 0.5 0.5
vt 0.83456530317942912 0.87157241273869712
vt 0.79389262614623646 0.90450849718747373
vt 0.5 0.5
vt 0.871572412738697 0.83456530317942912
vt 0.83456530317942912 0.87157241273869712
vt 0.5 0.5
vt 0.90450849718747373 0.79389262614623668
vt 0.871572412738697 0.83456530317942912
vt 0.5 0.5
vt 0.93301270189221941 0.75
vt 0.90450849718747373 0.79389262614623668
vt 0.5 0.5
vt 0.95677272882130038 0.70336832153790019
vt 0.93301270189221941 0.75
vt 0.5 0.5
vt 0.97552825814757682 0.65450849718747373
vt 0.95677272882130038 0.70336832153790019
vt 0.5 0.5
vt 0.98907380036690284 0.6039558454088797
vt 0.97552825814757682 0.65450849718747373
vt 0.5 0.5
vt 0.99726094768413664 0.55226423163382687
vt 0.98907380036690284 0.6039558454088797
vt 0.5 0.5
vt 1 0.50000000000000011
vt 0.99726094768413664 0.55226423163382687
vt 0.5 0.5
vt 0.99726094768413676 0.44773576836617346
vt 1 0.50000000000000011
vt 0.5 0.5
vt 0.98907380036690284 0.39604415459112047
vt 0.99726094768413676 0.44773576836617346
vt 0.5 0.5
vt 0.97552825814757682 0.34549150281252616
vt 0.98907380036690284 0.39604415459112047
vt 0.5 0.5
vt 0.9567727288213006 0.29663167846210009
vt 0.97552825814757682 0.34549150281252616
vt 0.5 0.5
vt 0.9330127018922193 0.24999999999999994
vt 0.9567727288213006 0.29663167846210009
vt 0.5 0.5
vt 0.90450849718747373 0.20610737385376349
vt 0.9330127018922193 0.24999999999999994
vt 0.5 0.5
vt 0.87157241273869712 0.16543469682057088
vt 0.90450849718747373 0.20610737385376349
vt 0.5 0.5
vt 0.83456530317942923 0.128427587261303
vt 0.87157241273869712 0.16543469682057088
vt 0.5 0.5
vt 0.79389262614623668 0.09549150281252633
vt 0.83456530317942923 0.128427587261303
vt 0.5 0.5
vt 0.75000000000000022 0.066987298107780813
vt 0.79389262614623668 0.09549150281252633
vt 0.5 0.5
vt 0.70336832153790008 0.043227271178699511
vt 0.75000000000000022 0.066987298107780813
vt 0.5 0.5
vt 0.65450849718747373 0.024471741852423234
vt 0.70336832153790008 0.043227271178699511
vt 0.5 0.5
vt 0.60395584540887992 0.010926199633097211
vt 0.65450849718747373 0.024471741852423234
vt 0.5 0.5
vt 0.55226423163382665 0.0027390523158632996
vt 0.60395584540887992 0.010926199633097211
vt 0.5 0.5
vt 0.50000000000000011 0
vt 0.55226423163382665 0.0027390523158632996
vt 0.5 0.5
vt 0.44773576836617351 0.0027390523158632996
vt 0.50000000000000011 0
vt 0.5 0.5
vt 0.39604415459112075 0.0109261996330971
vt 0.44773576836617351 0.0027390523158632996
vt 0.5 0.5
vt 0.34549150281252639 0.024471741852423179
vt 0.39604415459112075 0.0109261996330971
vt 0.5 0.5
vt 0.2966316784620997 0.043227271178699622
vt 0.34549150281252639 0.024471741852423179
vt 0.5 0.5
vt 0.24999999999999994 0.0669872981077807
vt 0.2966316784620997 0.043227271178699622
vt 0.5 0.5
vt 0.20610737385376354 0.095491502812526219
vt 0.24999999999999994 0.0669872981077807
vt 0.5 0.5
vt 0.1654346968205711 0.12842758726130271
vt 0.20610737385376354 0.095491502812526219
vt 0.5 0.5
vt 0.12842758726130288 0.16543469682057094
vt 0.1654346968205711 0.12842758726130271
vt 0.5 0.5
vt 0.09549150281252633 0.20610737385376332
vt 0.12842758726130288 0.16543469682057094
vt 0.5 0.5
vt 0.066987298107780813 0.24999999999999978
vt 0.09549150281252633 0.20610737385376332
vt 0.5 0.5
vt 0.043227271178699511 0.29663167846209992
vt 0.066987298107780813 0.24999999999999978
vt 0.5 0.5
vt 0.024471741852423234 0.34549150281252616
vt 0.043227271178699511 0.29663167846209992
vt 0.5 0.5
vt 0.010926199633097211 0.39604415459112008
vt 0.024471741852423234 0.34549150281252616
vt 0.5 0.5
vt 0.0027390523158633551 0.44773576836617329
vt 0.010926199633097211 0.39604415459112008
vt 0.5 0.5
vt 0 0.5
vt 0.0027390523158633551 0.44773576836617329
g Disc
f 1/1/1 2/2/2 3/3/3
f 4/4/4 5/5/5 6/6/6
f 7/7/7 8/8/8 9/9/9
f 10/10/10 11/11/11 12/12/12
f 13/13/13 14/14/14 15/15/15
f 16/16/16 17/17/17 18/18/18
f 19/19/19 20/20/20 21/21/21
f 22/22/22 23/23/23 24/24/24
f 25/25/25 26/26/26 27/27/27
f 28/28/28 29/29/29 30/30/30
f 31/31/31 32/32/32 33/33/33
f 34/34/34 35/35/35 36/36/36
f 37/37/37 38/38/38 39/39/39
f 40/40/40 41/41/41 42/42/42
f 43/43/43 44/44/44 45/45/45
f 46/46/46 47/47/47 48/48/48
f 49/49/49 50/50/50 51/51/51
f 52/52/52 53/53/53 54/54/54
f 55/55/55 56/56/56 57/57/57
f 58/58/58 59/59/59 60/60/60
f 61/61/61 62/62/62 63/63/63
f 64/64/64 65/65/65 66/66/66
f 67/67/67 68/68/68 69/69/69
f 70/70/70 71/71/71 72/72/72
f 73/73/73 74/74/74 75/75/75
f 76/76/76 77/77/77 78/78/78
f 79/79/79 80/80/80 81/81/81
f 82/82/82 83/83/83 84/84/84
f 85/85/85 86/86/86 87/87/87
f 88/88/88 89/89/89 90/90/90
f 91/91/91 92/92/92 93/93/93
f 94/94/94 95/95/95 96/96/96
f 97/97/97 98/98/98 99/99/99
f 100/100/100 101/101/101 102/102/102
f 103/103/103 104/104/104 105/105/105
f 106/106/106 107/107/107 108/108/108
f 109/109/109 110/110/110 111/111/111
f 112/112/112 113/113/113 114/114/114
f 115/115/115 116/116/116 117/117/117
f 118/118/118 119/119/119 120/120/120
f 121/121/121 122/122/122 123/123/123
f 124/124/124 125/125/125 126/126/126
f 127/127/127 128/128/128 129/129/129
f 130/130/130 131/131/131 132/132/132
f 133/133/133 134/134/134 135/135/135
f 136/136/136 137/137/137 138/138/138
f 139/139/139 140/140/140 141/141/141
f 142/142/142 143/143/143 144/144/144
f 145/145/145 146/146/146 147/147/147
f 148/148/148 149/149/149 150/150/150
f 151/151/151 152/152/152 153/153/153
f 154/154/154 155/155/155 156/156/156
f 157/157/157 158/158/158 159/159/159
f 160/160/160 161/161/161 162/162/162
f 163/163/163 164/164/164 165/165/165
f 166/166/166 167/167/167 168/168/168
f 169/169/169 170/170/170 171/171/171
f 172/172/172 173/173/173 174/174/174
f 175/175/175 176/176/176 177/177/177
f 178/178/178 179/179/179 180/180/180