o Frame2
v -16.668550631407044 0 -48.387964513062172
v -0.0094444444444263809 0 -49.012925170068058
v -0.0094368858654263477 7.5 -51.512773998488228
v -30.007548487103136 7.5 -51.044052343159478
v -35.788438994000373 0 -46.825562759826255
v -76.254637518896445 0 -42.763317271353
v -60.00565906084654 7.5 -49.637887377173143
v -90.003768996834822 7.5 -47.29427910052911
v -95.022985317607947 0 -41.200914189460377
v -111.09619056476757 0 -40.575951318027364
v -120.00187868480722 7.5 -44.013227513227491
v -123.1852720785797 0 -41.357148983725381
v -123.34475488355062 7.5 -44.884348426870673
v -127.33295981616931 0 -42.421533120084007
v -130.00124867724867 0 -44.013227513227491
v -126.23700760582008 7.5 -47.217965797430026
v -129.13649906108276 7.5 -49.19913844009821
v -130.732041254045 7.5 -49.490388868220833
v -132.50109145880572 7.5 -49.012925170068058
v -133.77939698040672 7.5 -47.849647315523555
v -134.04921051823504 7.5 -46.296788784958494
v -132.67132511337866 7.5 -42.39486016628868
v -127.1303357758468 0 -37.5878582205452
v -130.58336218584654 7.5 -38.052200255102008
v -125.78276434358466 0 -32.92018672052177
v -130.00124867724867 7.5 -34.013869992441442
v -125.60699404688091 0 -29.424313158423274
v -126.2514845521542 0 -26.514337679516188
v -128.59508663430651 0 -20.108481552343193
v -132.81357357804231 7.5 -20.577210884353747
v -129.59111754402284 0 -15.440801194609804
v -130.00124792139079 0 -9.01541950113372
v -133.75101851851849 7.5 -9.015438397581363
v -129.59111803267314 0 -2.5900394315712276
v -132.81358137282689 7.5 2.546334089191248
v -128.59508841765873 0 2.0776366449358079
v -126.25149031557068 0 8.4834797808013036
v -130.00126001511714 7.5 15.982993197278915
v -125.60700198191256 0 11.393448321168876
v -125.78277422878874 0 14.889315830498958
v -127.13034713290698 0 19.556983049296264
v -130.58337331112998 7.5 20.021323459939708
v -130.00126077097505 0 25.982350718064993
v -132.67133616780043 7.5 24.36398337112638
v -127.33297196368783 0 24.390656324921508
v -134.04922164351851 7.5 28.265911989795995
v -133.77940819426726 7.5 29.818770520361056
v -132.50110279667422 7.5 30.98204837490556
v -130.73205237489958 7.5 31.459512073058306
v -129.13651008007369 7.5 31.16826164493591
v -126.23701866024186 7.5 29.1870890022675
v -123.34476611512659 7.5 26.853471631708146
v -123.18528424833477 0 23.326272188562825
v -111.09620269982993 0 22.545074522864638
v -120.00189002267572 7.5 25.982350718064993
v -95.022997338258222 0 23.170037394298049
v -90.0037803347033 7.5 29.263402305366355
v -76.254649376417234 0 24.732440476190447
v -35.7884505031179 0 28.7946859646637
v -60.005670398715012 7.5 31.607010582010389
v -30.007559824971636 7.5 33.013175547996923
v -16.668562017254828 0 30.357087717899674
v -0.00945578231292643 0 30.98204837490556
v -0.0094482237338979758 7.5 33.48189720332573
v 16.649650858607373 0 30.357087717899674
v 29.98866118669693 7.5 33.01317554799715
v 35.769540343915367 0 28.7946859646637
v 76.235741685563141 0 24.732440476190447
v 59.986770597127759 7.5 31.607010582010616
v 89.984880007558587 7.5 29.263402305366583
v 95.004090460837119 0 23.170037394298049
v 111.07729591836733 0 22.545074522864638
v 119.98298941798942 7.5 25.982350718064993
v 123.16637651762096 0 23.326272188562825
v 123.325866638322 7.5 26.853471631708373
v 127.3140632639774 0 24.390656324921508
v 129.982350718065 0 25.982350718064993
v 126.21811885865463 7.5 29.1870890022675
v 129.11760889077857 7.5 31.168261644935683
v 130.71315021494712 7.5 31.459512073058534
v 132.48219954648533 7.5 30.98204837490556
v 133.76050560545411 7.5 29.818770520360829
v 134.03031964521927 7.5 28.265911989795768
v 132.65243527966749 7.5 24.36398337112638
v 127.11144146677765 0 19.556983049296036
v 130.56447367488664 7.5 20.021323459939481
v 125.76387418509069 0 14.889315830498731
v 129.98236205593355 7.5 15.982993197278915
v 125.58810811868148 0 11.393448321168648
v 126.23260251322751 0 8.4834797808010762
v 128.57620966789494 0 2.0776366449358079
v 132.79468738189723 7.5 2.546334089191248
v 129.57224091937121 0 -2.5900394315712276
v 129.98236961451244 0 -9.01541950113372
v 133.73213246409682 7.5 -9.0154383975811356
v 129.57223706626746 0 -15.440801194609577
v 132.79469517668184 7.5 -20.577210884353747
v 128.57620506188579 0 -20.108481552342965
v 126.23260251322751 0 -26.514337679516188
v 129.98237339380205 7.5 -34.013869992441442
v 125.58811188320811 0 -29.424313158423075
v 125.76388162556691 0 -32.920186720521343
v 127.11145169743247 0 -37.5878582205452
v 130.564486607143 7.5 -38.052200255102008
v 129.98236205593349 0 -44.013227513227491
v 132.65244803476963 7.5 -42.39486016628868
v 127.31407273342279 0 -42.421533120083808
v 134.03033151455031 7.5 -46.296788784958494
v 133.76051709833251 7.5 -47.849647315523328
v 132.48221088435383 7.5 -49.012925170068058
v 130.71316155281568 7.5 -49.490388868220833
v 129.11762022864707 7.5 -49.19913844009821
v 126.21813019652308 7.5 -47.217965797430026
v 123.3258779761905 7.5 -44.884348426870673
v 123.16638460028111 0 -41.35714898372558
v 111.07730247307256 0 -40.575951318027137
v 119.98300075585792 7.5 -44.013227513227491
v 95.0040968162439 0 -41.200914189460377
v 89.984891345427116 7.5 -47.294279100529309
v 76.235748771730925 0 -42.763317271353
v 35.769550087396084 0 -46.825562759826255
v 59.986781934996259 7.5 -49.637887377172945
v 29.98867252456543 7.5 -51.044052343159478
v 16.649661731446059 0 -48.387964513062172
v -30.110265583664045 0 -56.114496527777732
v -60.214989370748327 0 -54.695318405139915
v -90.388741998535551 0 -52.221952357331986
v -120.69665721844295 0 -48.6614512471655
v -123.28324032738098 0 -51.5677591175359
v -126.91135440287229 0 -52.899442554799691
v -131.00818942507561 0 -52.824961026076977
v -135.00093537414969 0 -51.512773998488228
v -138.20385912698416 0 -49.59882723922891
v -140.00062074829936 0 -47.450519652305218
v -139.9225 0 -44.833490410052946
v -137.50077664399095 0 -41.513378684807122
v -134.64939519557825 0 -37.72456774376397
v -133.4385345804989 0 -33.701388888888573
v -133.63383467970525 0 -29.209488378684853
v -135.00093537414969 0 -24.014512471655195
v -137.18829591836737 0 -16.514951814058776
v -137.50077551020411 0 -9.01541950113372
v -137.18830158730162 0 -1.5158919123204271
v -135.00094671201816 0 5.9836356764928951
v -133.63384601757372 0 11.178612174036346
v -133.43854591836737 0 15.670516817838063
v -134.64940653344672 0 19.693706892478986
v -137.50078798185945 0 23.482539682539652
v -139.92251133786851 0 26.802630149281981
v -140.00063208616783 0 29.419652305366583
v -138.20387046485263 0 31.567966978458116
v -135.00094671201816 0 33.481934996220787
v -130.89964061318975 0 34.849017975245772
v -126.56397297808015 0 35.044307445200275
v -122.69702558106579 0 33.833439035336369
v -120.00188019652308 0 30.98204837490556
v -90.003774653958828 0 34.263105276832846
v -60.005668225623594 0 36.606722411186638
v -30.007560734363196 0 38.012889148714862
v -0.0094520030234264141 0 38.48159486016624
v 29.988656757842023 0 38.01287320483749
v 59.986764455782293 0 36.606708238850956
v 89.984871445105853 0 34.263099962207377
v 119.98297808012097 0 30.98204837490556
v 122.67812340561221 0 33.833438444822377
v 126.54507038926681 0 35.044302721088343
v 130.8807369023998 0 34.849002031368
v 134.9820408163265 0 33.48189720332573
v 138.18496515967496 0 31.567951034580574
v 139.98172808012095 0 29.419647581254651
v 139.90360863095231 0 26.802629558767762
v 137.48188586545723 0 23.482539682539652
v 134.63050223214282 0 19.693706892479213
v 133.41964049508692 0 15.670516817838461
v 133.61494018093345 0 11.178612174036516
v 134.9820408163265 0 5.9836356764928951
v 137.16941090325014 0 -1.5158919123204271
v 137.48189720332573 0 -9.01541950113372
v 137.16941657218445 0 -16.514951814058776
v 134.982052154195 0 -24.014512471655195
v 133.61495151880195 0 -29.209488378684625
v 133.41965183295537 0 -33.701388888888772
v 134.63051357001132 0 -37.724567743764169
v 137.48189720332573 0 -41.513378684807122
v 139.90361996882086 0 -44.833490410052747
v 139.98173941798945 0 -47.450519652305417
v 138.18497649754346 0 -49.598827239229138
v 134.982052154195 0 -51.512773998488228
v 130.98930898053669 0 -52.824961026076977
v 126.89247637944067 0 -52.899442554799691
v 123.26436401643991 0 -51.5677591175359
v 120.67778155706725 0 -48.6614512471655
v 90.369864240835227 0 -52.221962986583378
v 60.196112528344685 0 -54.695346749810824
v 30.091390719482234 0 -56.1145284155329
v -0.0094368858654831911 0 -56.512433862433738
vn 6.6402101639263833 66.400038364780315 164.44276537698414
vn -0.70308248299312481 33.844078138140915 94.97448265992594
vn 0 1 0
vn 21.092427156409386 109.42390850111008 223.44782582808526
vn 17.577040899367962 151.31535819420753 223.55768781251112
vn 8.202622324971145 100.66171694220776 130.65582392201671
vn 7.8120419825915377 87.24376694315481 145.40099112236041
vn -6.7917567892495612 20.236147503039714 48.949113625362848
vn -9.9602944856329145 13.689738495342276 25.559912245008629
vn 6.1026359667673331 12.993214536328338 7.6032884912546086
vn 38.589251759730985 17.106689382900115 -15.766118152990316
vn 30.50468831195623 15.481964954559034 -5.2636380939094
vn 24.021933903770929 15.150074923179174 1.7577007821357604
vn 34.934368522800305 28.670734032655503 11.205347202845992
vn 61.2754889824852 39.918125592191977 15.379894731655703
vn 41.59898269203552 21.484762601497437 5.2731048265660263
vn 61.0313356245274 30.08660446652253 2.34361357281621
vn 56.637071582105342 28.774501336420752 -5.8589916235591488
vn 41.525697046396992 24.139418881041671 -12.523603939134222
vn 56.881176960801838 38.44730742864683 -14.501019483639794
vn 24.021885186366205 15.150045017607901 -1.75768532543227
vn 30.613255230477705 16.385853551683542 5.71254431622906
vn 37.828412875567068 17.581573588732457 12.001499595497869
vn 22.940832967029792 9.0866621085088415 5.7264692186282673
vn -0.13882522410033479 12.177387040930196 -13.452122146095109
vn -6.9209317577132623 28.48799333742479 -60.8878847394671
vn -2.5683892697698241 35.687414291341561 -78.762907506318527
vn 13.67104385156793 111.21841398005927 -162.09915752846283
vn 21.092432138871189 172.86175023342361 -222.1295506317762
vn 17.577038408137113 142.59151385412005 -224.21682725417634
vn 8.2026090384069761 62.104687422971061 -134.17123020301867
vn 1.1718041383220168 56.406797235194979 -158.29081119274986
vn -6.6402101639260991 66.400049390942 -164.4427638416478
vn -21.0924271564096 109.42394872938539 -223.44784060108412
vn -17.577040899367908 151.31538047663136 -223.55769175834385
vn -8.2026223249717845 100.66172697559095 -130.65582837301571
vn -7.8120419825920351 87.243771709630366 -145.40098866803666
vn 5.09381759193797 15.1771052776135 -36.711833561142484
vn 9.9602944856331277 13.68972451017712 -25.559903251665119
vn -6.1026346135062211 12.993217092170138 -7.6032890367881123
vn -38.5892369968829 17.106718564940355 15.766095344387878
vn -30.504662476969884 15.481974514899603 5.2636124176231647
vn -24.021885186366205 15.150059989731632 -1.7577312305130732
vn -34.934293785873152 28.670680694565554 -11.205380809550505
vn -61.275445801149921 39.917995408290167 -15.379909330268475
vn -41.598960547760733 21.484671126133584 -5.2730997998155971
vn -61.031335624526832 30.086523331960962 -2.3436030727395973
vn -56.637086344954639 28.774495890072242 5.8590046001040719
vn -41.525761818399793 24.139494435309267 12.523629573899839
vn -56.881226785419507 38.447388922126954 14.501037403893662
vn -24.02193390376933 15.150098518386931 1.7577033287272315
vn -30.61329398295797 16.385898185955877 -5.71252430334134
vn -37.828427638416784 17.581618270978893 -12.001484109268858
vn -22.9408370268132 9.0866902869692137 -5.7264561590423568
vn 0.13882522409993214 12.177384696068456 13.45212292852627
vn 6.9209317577125162 28.487984474327586 60.88788847631335
vn 2.5683892697709609 35.687412706057053 78.762912510924465
vn -13.671043851569209 111.21843482517363 162.09915777943107
vn -21.092432138872041 172.86178265893329 222.12955023317932
vn -17.577038408136261 142.59154043898735 224.21682348964978
vn -8.2026090384067629 62.104701373909322 134.17122949440193
vn -6.922503897391703 151.86090625339742 -225.37832748724492
vn -15.590381117724448 151.46405813863754 -225.69146587714945
vn -23.287296863190079 147.35810092236855 -226.19944383916757
vn 4.78227195826209 48.806143152387335 -73.368051093484283
vn 15.547909875755934 18.229361411795612 -22.785471599230039
vn 4.71450715702904 15.691058521570566 -28.968559116354875
vn -2.9491534243905271 9.88155648493613 -21.476575066875672
vn -14.766298185941167 10.487922100970366 -11.048855034722223
vn -15.233453798186289 29.246064576304654 -18.748820153061239
vn -17.870013109409868 21.8077127268623 -6.4449032738094658
vn -22.264278628117857 18.47752602219537 9.374415391156532
vn -28.62895644368912 19.107274924391522 18.402669329884702
vn -29.625800146447787 15.719175368962894 11.610888930224803
vn -54.879346182917033 21.628147829301767 -4.4919109623015885
vn -36.325786564625169 10.716422564914693 -5.8590029761904816
vn -60.640772628496144 28.918899912564484 -11.229765447845779
vn -56.246598639455527 35.151813962597252 -9.3744005102040617
vn -66.4020809712774 34.338089333392752 2.3435786918933843
vn -56.24645691609981 27.730900170133232 9.3743579931972931
vn -65.3279079861111 25.094536814039049 15.916942318594138
vn -36.32580428004438 13.841030058898021 5.8590029761904816
vn -31.383562452758582 15.398949561408436 -3.9941845297146017
vn -30.386706939720654 18.63596359011602 -15.375512300406342
vn -27.527129688681526 21.304513068911785 -16.627475700349663
vn -22.264172335600989 19.26417943189761 -9.3744153911564254
vn -17.870013109410507 15.171670315543052 6.4449032738095724
vn -15.233560090703264 16.693297012467681 18.748820153061239
vn -9.71197662007495 9.45269859252483 15.932098680422712
vn 1.3313449158962243 13.031964181710588 24.247513966117012
vn 3.8084210246602623 23.856230063462533 30.759806370464844
vn 15.989691102135168 21.537350749306682 23.635863316680844
vn -5.3242442159150372 84.333852956204751 123.81419382661922
vn -19.92070578231278 149.98170244077292 224.98580476721941
vn -12.889872094671375 149.98191166703592 224.98581123334756
vn -5.8589852607710213 149.98179666617492 224.98581955959477
vn 1.1718439980148787 149.98147442269428 224.98581725659014
vn 8.2026289682545439 149.98146774600076 224.98581467309137
vn 15.233453798185366 149.98145607483323 224.98581024423663
vn 22.264278628117466 149.98144021496279 224.98580758692378
vn -4.1626151502262587 41.81064289150153 58.392572101757366
vn -15.108567472127419 20.401773740998522 23.653955853174438
vn -3.8083634495460927 17.203121636237448 30.75980061295347
vn 3.2786602271113807 10.352110228428401 22.127927030187102
vn 14.848674000849911 10.569650498151862 11.211695985685964
vn 15.233436082766545 29.246051394958123 18.748827239229158
vn 17.869955534298043 21.807660336114292 6.4449130172900482
vn 22.264154620181245 18.477383946185075 -9.3744083049889326
vn 28.628956443688622 19.107189038934251 -18.402670008975832
vn 29.625882818404392 15.719176205126582 -11.610892473308496
vn 54.879384566325911 21.628107385928939 4.49190818688578
vn 36.325804280045872 10.716382711455708 5.8590012046484219
vn 60.640691432823324 28.918866408673086 11.229789511290704
vn 56.24645691609981 35.151859075251735 9.3744614512471
vn 66.4020809712774 34.338122095137024 -2.3435790462016826
vn 56.246598639455527 27.730917353054867 -9.3744189342402251
vn 65.327989181783877 25.09449946147134 -15.916967090655732
vn 36.325786564625915 13.840983998064303 -5.8590012046486351
vn 31.383524069350273 15.398907202223368 3.9941881613758312
vn 30.386624267762556 18.635946475374691 15.375516994992466
vn 27.527128212395979 21.304577754221089 16.627474696475559
vn 22.264278628118603 19.26427827301131 9.3744083049889326
vn 17.870013109411467 15.171657645243478 -6.4449130172902613
vn 15.233453798185543 16.693192121693475 -18.748827239229158
vn 9.6296008051652677 9.3618306195658345 -15.769256218112105
vn -1.6607897146487716 12.26191258611424 -23.596138370713007
vn -4.71450715702904 21.520652978647153 -28.968543615362918
vn -16.429021695483854 18.88488374727898 -22.767367606764992
vn 3.8301681783826425 54.1392077655768 -82.794358007960071
vn 20.943759448222394 150.85408020235374 -226.19944609788354
vn 13.246825987340145 152.63996620628382 -225.69145732945955
vn 5.7145219198791608 151.8125964168803 -225.50914706160256
vn -0.00011957908188975353 150.49390238094134 -225.75621113679853
g Frame2
f 1//1 2//2 3//3
f 4//3 1//1 3//3
f 5//4 1//1 4//3
f 6//5 5//4 4//3
f 7//3 6//5 4//3
f 8//3 6//5 7//3
f 9//6 6//5 8//3
f 10//7 9//6 8//3
f 11//3 10//7 8//3
f 12//8 10//7 11//3
f 13//3 12//8 11//3
f 14//9 12//8 13//3
f 15//10 14//9 13//3
f 16//3 15//10 13//3
f 17//3 15//10 16//3
f 18//3 15//10 17//3
f 19//3 15//10 18//3
f 20//3 15//10 19//3
f 21//3 15//10 20//3
f 22//3 15//10 21//3
f 23//11 15//10 22//3
f 24//3 23//11 22//3
f 25//12 23//11 24//3
f 26//3 25//12 24//3
f 27//13 25//12 26//3
f 28//14 27//13 26//3
f 29//15 28//14 26//3
f 30//3 29//15 26//3
f 31//16 29//15 30//3
f 32//17 31//16 30//3
f 33//3 32//17 30//3
f 34//18 32//17 33//3
f 35//3 34//18 33//3
f 36//19 34//18 35//3
f 37//20 36//19 35//3
f 38//3 37//20 35//3
f 39//21 37//20 38//3
f 40//22 39//21 38//3
f 41//23 40//22 38//3
f 42//3 41//23 38//3
f 43//24 41//23 42//3
f 44//3 43//24 42//3
f 45//25 43//24 44//3
f 46//3 45//25 44//3
f 47//3 45//25 46//3
f 48//3 45//25 47//3
f 49//3 45//25 48//3
f 50//3 45//25 49//3
f 51//3 45//25 50//3
f 52//3 45//25 51//3
f 53//26 45//25 52//3
f 54//27 53//26 52//3
f 55//3 54//27 52//3
f 56//28 54//27 55//3
f 57//3 56//28 55//3
f 58//29 56//28 57//3
f 59//30 58//29 57//3
f 60//3 59//30 57//3
f 61//3 59//30 60//3
f 62//31 59//30 61//3
f 63//32 62//31 61//3
f 64//3 63//32 61//3
f 65//33 63//32 64//3
f 66//3 65//33 64//3
f 67//34 65//33 66//3
f 68//35 67//34 66//3
f 69//3 68//35 66//3
f 70//3 68//35 69//3
f 71//36 68//35 70//3
f 72//37 71//36 70//3
f 73//3 72//37 70//3
f 74//38 72//37 73//3
f 73//3 74//38 73//3
f 75//3 74//38 73//3
f 76//39 74//38 75//3
f 77//40 76//39 75//3
f 78//3 77//40 75//3
f 79//3 77//40 78//3
f 80//3 77//40 79//3
f 81//3 77//40 80//3
f 82//3 77//40 81//3
f 83//3 77//40 82//3
f 84//3 77//40 83//3
f 85//41 77//40 84//3
f 86//3 85//41 84//3
f 87//42 85//41 86//3
f 88//3 87//42 86//3
f 89//43 87//42 88//3
f 90//44 89//43 88//3
f 91//45 90//44 88//3
f 92//3 91//45 88//3
f 93//46 91//45 92//3
f 94//47 93//46 92//3
f 95//3 94//47 92//3
f 96//48 94//47 95//3
f 97//3 96//48 95//3
f 98//49 96//48 97//3
f 99//50 98//49 97//3
f 100//3 99//50 97//3
f 101//51 99//50 100//3
f 102//52 101//51 100//3
f 103//53 102//52 100//3
f 104//3 103//53 100//3
f 105//54 103//53 104//3
f 106//3 105//54 104//3
f 107//55 105//54 106//3
f 108//3 107//55 106//3
f 109//3 107//55 108//3
f 110//3 107//55 109//3
f 111//3 107//55 110//3
f 112//3 107//55 111//3
f 113//3 107//55 112//3
f 114//3 107//55 113//3
f 115//56 107//55 114//3
f 116//57 115//56 114//3
f 117//3 116//57 114//3
f 118//58 116//57 117//3
f 119//3 118//58 117//3
f 120//59 118//58 119//3
f 121//60 120//59 119//3
f 122//3 121//60 119//3
f 123//3 121//60 122//3
f 124//61 121//60 123//3
f 2//2 124//61 123//3
f 2//2 2//2 123//3
f 3//3 2//2 123//3
f 4//3 3//3 125//62
f 7//3 4//3 125//62
f 126//63 7//3 125//62
f 8//3 7//3 126//63
f 127//64 8//3 126//63
f 11//3 8//3 127//64
f 128//65 11//3 127//64
f 13//3 11//3 128//65
f 16//3 13//3 128//65
f 129//66 16//3 128//65
f 17//3 16//3 129//66
f 130//67 17//3 129//66
f 131//68 17//3 130//67
f 18//3 17//3 131//68
f 19//3 18//3 131//68
f 132//69 19//3 131//68
f 20//3 19//3 132//69
f 21//3 20//3 132//69
f 22//3 21//3 132//69
f 133//70 22//3 132//69
f 134//71 22//3 133//70
f 135//72 22//3 134//71
f 136//73 22//3 135//72
f 24//3 22//3 136//73
f 137//74 24//3 136//73
f 26//3 24//3 137//74
f 138//75 26//3 137//74
f 30//3 26//3 138//75
f 139//76 30//3 138//75
f 140//77 30//3 139//76
f 33//3 30//3 140//77
f 141//78 33//3 140//77
f 142//79 33//3 141//78
f 35//3 33//3 142//79
f 143//80 35//3 142//79
f 144//81 35//3 143//80
f 38//3 35//3 144//81
f 145//82 38//3 144//81
f 146//83 38//3 145//82
f 42//3 38//3 146//83
f 147//84 42//3 146//83
f 44//3 42//3 147//84
f 148//85 44//3 147//84
f 46//3 44//3 148//85
f 149//86 46//3 148//85
f 150//87 46//3 149//86
f 151//88 46//3 150//87
f 152//89 46//3 151//88
f 47//3 46//3 152//89
f 48//3 47//3 152//89
f 49//3 48//3 152//89
f 153//90 49//3 152//89
f 50//3 49//3 153//90
f 51//3 50//3 153//90
f 154//91 51//3 153//90
f 155//92 51//3 154//91
f 52//3 51//3 155//92
f 156//93 52//3 155//92
f 55//3 52//3 156//93
f 57//3 55//3 156//93
f 157//94 57//3 156//93
f 60//3 57//3 157//94
f 158//95 60//3 157//94
f 61//3 60//3 158//95
f 159//96 61//3 158//95
f 64//3 61//3 159//96
f 160//97 64//3 159//96
f 66//3 64//3 160//97
f 161//98 66//3 160//97
f 69//3 66//3 161//98
f 162//99 69//3 161//98
f 70//3 69//3 162//99
f 163//100 70//3 162//99
f 73//3 70//3 163//100
f 164//101 73//3 163//100
f 73//3 73//3 164//101
f 75//3 73//3 164//101
f 78//3 75//3 164//101
f 165//102 78//3 164//101
f 79//3 78//3 165//102
f 166//103 79//3 165//102
f 167//104 79//3 166//103
f 80//3 79//3 167//104
f 81//3 80//3 167//104
f 168//105 81//3 167//104
f 82//3 81//3 168//105
f 83//3 82//3 168//105
f 84//3 83//3 168//105
f 169//106 84//3 168//105
f 170//107 84//3 169//106
f 171//108 84//3 170//107
f 172//109 84//3 171//108
f 86//3 84//3 172//109
f 173//110 86//3 172//109
f 88//3 86//3 173//110
f 174//111 88//3 173//110
f 92//3 88//3 174//111
f 175//112 92//3 174//111
f 176//113 92//3 175//112
f 95//3 92//3 176//113
f 177//114 95//3 176//113
f 178//115 95//3 177//114
f 97//3 95//3 178//115
f 179//116 97//3 178//115
f 180//117 97//3 179//116
f 100//3 97//3 180//117
f 181//118 100//3 180//117
f 182//119 100//3 181//118
f 104//3 100//3 182//119
f 183//120 104//3 182//119
f 106//3 104//3 183//120
f 184//121 106//3 183//120
f 108//3 106//3 184//121
f 185//122 108//3 184//121
f 186//123 108//3 185//122
f 187//124 108//3 186//123
f 188//125 108//3 187//124
f 109//3 108//3 188//125
f 110//3 109//3 188//125
f 111//3 110//3 188//125
f 189//126 111//3 188//125
f 112//3 111//3 189//126
f 113//3 112//3 189//126
f 190//127 113//3 189//126
f 191//128 113//3 190//127
f 114//3 113//3 191//128
f 192//129 114//3 191//128
f 117//3 114//3 192//129
f 119//3 117//3 192//129
f 192//129 119//3 192//129
f 193//130 119//3 192//129
f 122//3 119//3 193//130
f 194//131 122//3 193//130
f 123//3 122//3 194//131
f 195//132 123//3 194//131
f 3//3 123//3 195//132
f 196//133 3//3 195//132
f 125//62 3//3 196//133
