o Frame2Background
v 16.649661731446059 0 -48.387964513062172
v -0.0094444444444263809 0 -49.012925170068058
v -16.668550631407044 0 -48.387964513062172
v 35.769550087396084 0 -46.825562759826255
v 76.235748771730925 0 -42.763317271353
v 95.0040968162439 0 -41.200914189460377
v 127.11145169743247 0 -37.5878582205452
v 129.98236205593349 0 -44.013227513227491
v 127.31407273342279 0 -42.421533120083808
v 123.16638460028111 0 -41.35714898372558
v 111.07730247307256 0 -40.575951318027137
v 125.76388162556691 0 -32.920186720521343
v 125.58811188320811 0 -29.424313158423075
v 126.23260251322751 0 -26.514337679516188
v 128.57620506188579 0 -20.108481552342965
v 129.57223706626746 0 -15.440801194609577
v 129.98236961451244 0 -9.01541950113372
v 129.57224091937121 0 -2.5900394315712276
v 128.57620966789494 0 2.0776366449358079
v 126.23260251322751 0 8.4834797808010762
v 125.58810811868148 0 11.393448321168648
v 125.76387418509069 0 14.889315830498731
v 127.11144146677765 0 19.556983049296036
v 127.3140632639774 0 24.390656324921508
v 129.982350718065 0 25.982350718064993
v 123.16637651762096 0 23.326272188562825
v 111.07729591836733 0 22.545074522864638
v 95.004090460837119 0 23.170037394298049
v 76.235741685563141 0 24.732440476190447
v 35.769540343915367 0 28.7946859646637
v 16.649650858607373 0 30.357087717899674
v -0.00945578231292643 0 30.98204837490556
v -16.668562017254828 0 30.357087717899674
v -35.7884505031179 0 28.7946859646637
v -76.254649376417234 0 24.732440476190447
v -95.022997338258222 0 23.170037394298049
v -111.09620269982993 0 22.545074522864638
v -123.18528424833477 0 23.326272188562825
v -127.33297196368783 0 24.390656324921508
v -130.00126077097505 0 25.982350718064993
v -127.13034713290698 0 19.556983049296264
v -125.78277422878874 0 14.889315830498958
v -125.60700198191256 0 11.393448321168876
v -126.25149031557068 0 8.4834797808013036
v -128.59508841765873 0 2.0776366449358079
v -129.59111803267314 0 -2.5900394315712276
v -130.00124792139079 0 -9.01541950113372
v -129.59111754402284 0 -15.440801194609804
v -128.59508663430651 0 -20.108481552343193
v -126.2514845521542 0 -26.514337679516188
v -125.60699404688091 0 -29.424313158423274
v -125.78276434358466 0 -32.92018672052177
v -127.1303357758468 0 -37.5878582205452
v -127.33295981616931 0 -42.421533120084007
v -130.00124867724867 0 -44.013227513227491
v -123.1852720785797 0 -41.357148983725381
v -111.09619056476757 0 -40.575951318027364
v -95.022985317607947 0 -41.200914189460377
v -76.254637518896445 0 -42.763317271353
v -35.788438994000373 0 -46.825562759826255
vn 0 1 0
vt 0.56407752397709154 0.0078124990772642676
vt 0.50000000436099334 0
vt 0.43592248470230743 0.0078124990772642676
vt 0.63762018636548978 0.027343748154526937
vt 0.7932692117457959 0.0781250073818887
vt 0.86545971088100848 0.0976562730684038
vt 0.98895731276302612 0.14282231049304145
vt 0.99999997092671233 0.062500147637772632
vt 0.989736673508508 0.082397577721286863
vt 0.97378302239981418 0.095703215428133856
vt 0.92728362507513029 0.10546879982774927
vt 0.98377402460804708 0.20117187038632231
vt 0.98309794457139954 0.24487303568682545
vt 0.98557691076270859 0.28125001476377809
vt 0.99459133426769364 0.36132824772390049
vt 0.99842246780061938 0.41967791834550766
vt 1 0.500000236220436
vt 0.99842248262118227 0.58032253379517185
vt 0.99459135198422888 0.63867215089808693
vt 0.98557691076270859 0.71875022145665612
vt 0.98309793009153923 0.75512711379641762
vt 0.983773995989029 0.79882820343256433
vt 0.98895727341187634 0.85717770980715069
vt 0.98973663708527115 0.91760242227871558
vt 0.99999992731678011 0.93749985236222733
vt 0.97378299131070245 0.90429678457186291
vt 0.92728359986313824 0.89453120017225074
vt 0.86545968643559723 0.90234372693159837
vt 0.79326918448958827 0.92187499261811057
vt 0.6376201488882044 0.97265625184547233
vt 0.56407748215584819 0.99218750092273578
vt 0.49999996075106118 1
vt 0.43592244090782789 0.99218750092273578
vt 0.36237977801973259 0.97265625184547233
vt 0.2067307519125943 0.92187499261811057
vt 0.13454025309537085 0.90234372693159837
vt 0.07271634003692419 0.89453120017225074
vt 0.026216944938163917 0.90429678457186291
vt 0.010263295436450572 0.91760242227871558
vt 0 0.93749985236222733
vt 0.011042670778199626 0.85717770980715358
vt 0.016225969827144134 0.79882820343256722
vt 0.016902059497157413 0.75512711379642039
vt 0.014423102138563296 0.7187502214566589
vt 0.005408695736848268 0.63867215089808693
vt 0.0015775713943750238 0.58032253379517185
vt 4.9424589720890649E-08 0.500000236220436
vt 0.0015775732739175933 0.41967791834550477
vt 0.0054087025963271322 0.36132824772389766
vt 0.014423124306945487 0.28125001476377809
vt 0.016902090018431522 0.24487303568682298
vt 0.016226007849553716 0.20117187038631698
vt 0.011042714461950627 0.14282231049304145
vt 0.0102633421606174 0.082397577721284379
vt 4.6517260971655339E-08 0.062500147637772632
vt 0.026216991747861313 0.09570321542813634
vt 0.0727163867131797 0.10546879982774643
vt 0.13454029933155218 0.0976562730684038
vt 0.206730797521315 0.0781250073818887
vt 0.36237982228835641 0.027343748154526937
g Frame2Background
f 1/1/1 2/2/1 3/3/1
f 4/4/1 1/1/1 3/3/1
f 5/5/1 4/4/1 3/3/1
f 6/6/1 5/5/1 3/3/1
f 7/7/1 8/8/1 9/9/1
f 7/7/1 9/9/1 10/10/1
f 7/7/1 10/10/1 11/11/1
f 7/7/1 11/11/1 6/6/1
f 7/7/1 6/6/1 3/3/1
f 12/12/1 7/7/1 3/3/1
f 13/13/1 12/12/1 3/3/1
f 14/14/1 13/13/1 3/3/1
f 15/15/1 14/14/1 3/3/1
f 16/16/1 15/15/1 3/3/1
f 17/17/1 16/16/1 3/3/1
f 18/18/1 17/17/1 3/3/1
f 19/19/1 18/18/1 3/3/1
f 20/20/1 19/19/1 3/3/1
f 21/21/1 20/20/1 3/3/1
f 22/22/1 21/21/1 3/3/1
f 23/23/1 22/22/1 3/3/1
f 24/24/1 25/25/1 23/23/1
f 24/24/1 23/23/1 3/3/1
f 26/26/1 24/24/1 3/3/1
f 27/27/1 26/26/1 3/3/1
f 28/28/1 27/27/1 3/3/1
f 29/29/1 28/28/1 3/3/1
f 30/30/1 29/29/1 3/3/1
f 31/31/1 30/30/1 3/3/1
f 32/32/1 31/31/1 3/3/1
f 33/33/1 32/32/1 3/3/1
f 34/34/1 33/33/1 3/3/1
f 35/35/1 34/34/1 3/3/1
f 36/36/1 35/35/1 3/3/1
f 37/37/1 36/36/1 3/3/1
f 38/38/1 37/37/1 3/3/1
f 39/39/1 38/38/1 3/3/1
f 40/40/1 39/39/1 3/3/1
f 41/41/1 40/40/1 3/3/1
f 42/42/1 41/41/1 3/3/1
f 43/43/1 42/42/1 3/3/1
f 44/44/1 43/43/1 3/3/1
f 45/45/1 44/44/1 3/3/1
f 46/46/1 45/45/1 3/3/1
f 47/47/1 46/46/1 3/3/1
f 48/48/1 47/47/1 3/3/1
f 49/49/1 48/48/1 3/3/1
f 50/50/1 49/49/1 3/3/1
f 51/51/1 50/50/1 3/3/1
f 52/52/1 51/51/1 3/3/1
f 53/53/1 52/52/1 3/3/1
f 54/54/1 55/55/1 53/53/1
f 56/56/1 54/54/1 53/53/1
f 57/57/1 56/56/1 53/53/1
f 58/58/1 57/57/1 53/53/1
f 59/59/1 58/58/1 53/53/1
f 59/59/1 53/53/1 3/3/1
f 3/3/1 60/60/1 59/59/1
